<svg width="38" height="48" viewBox="0 0 38 48" fill="none" xmlns="http://www.w3.org/2000/svg">
<path d="M22.237 38.7401L20.371 35.3884V30.8788C20.371 28.291 19.5125 25.8091 17.9844 23.9792C16.4563 22.1493 14.3837 21.1212 12.2227 21.1212C10.0616 21.1212 7.98903 22.1493 6.46092 23.9792C4.93281 25.8091 4.07433 28.291 4.07433 30.8788V35.3884L2.20836 38.7401C2.10642 38.9239 2.04798 39.1373 2.03923 39.3577C2.03049 39.578 2.07178 39.7971 2.1587 39.9916C2.24563 40.1861 2.37494 40.3488 2.5329 40.4623C2.69086 40.5759 2.87156 40.636 3.05578 40.6364H21.3896C21.5738 40.636 21.7545 40.5759 21.9124 40.4623C22.0704 40.3488 22.1997 40.1861 22.2866 39.9916C22.3736 39.7971 22.4148 39.578 22.4061 39.3577C22.3974 39.1373 22.3389 38.9239 22.237 38.7401Z" fill="#A5A5A5"/>
<path d="M12.222 45.5151C13.1251 45.5161 14.0028 45.1569 14.7165 44.4944C15.4302 43.8318 15.9394 42.9036 16.1638 41.856H8.28027C8.50462 42.9036 9.01383 43.8318 9.72757 44.4944C10.4413 45.1569 11.319 45.5161 12.222 45.5151Z" fill="#A5A5A5"/>
<rect x="9.84961" y="1.5" width="25.699" height="30.1818" rx="12.8495" fill="#3AFF33" stroke="white" stroke-width="3"/>
<path d="M20.504 12.6V10.794H23.878V21H21.862V12.6H20.504Z" fill="black"/>
</svg>
